<svg width="560" height="201" viewBox="0 0 560 201" fill="none" xmlns="http://www.w3.org/2000/svg">
<path d="M4.5 115.969C-13.1352 58.8008 29.6057 0.887939 89.4323 0.887939H513.064C538.71 0.887939 559.5 21.6782 559.5 47.3242V99.1114C559.5 110.113 556.309 120.879 550.314 130.105L514.773 184.796C500.787 206.319 467.816 200.529 462 175.529L442.911 89.9871C441.982 85.8265 440.127 81.929 437.483 78.585C422.265 59.3377 391.439 67.2174 387.325 91.4067L379.709 136.176C375.185 162.772 338.658 166.829 328.408 141.874C318.431 117.582 283.109 120.585 277.375 146.212L271.435 172.759C263.417 208.591 212.881 210.04 202.825 174.725L194.479 145.418C184.769 111.323 140.366 102.833 118.764 130.943L87.2263 171.981C85.418 174.334 83.9534 176.933 82.8766 179.698C72.1401 207.272 32.6751 205.933 23.8315 177.695L4.5 115.969Z" fill="#9CEDFF"/>
</svg>
