<svg width="1943" height="281" viewBox="0 0 1943 281" fill="none" xmlns="http://www.w3.org/2000/svg">
<g filter="url(#filter0_d)">
<path d="M4 16.6957C4 7.4749 11.4749 0 20.6957 0H1922.3C1931.53 0 1939 7.4749 1939 16.6957V131.269C1939 169.975 1890.55 187.426 1865.87 157.607C1846.66 134.402 1809.88 138.892 1796.82 166.037L1773.25 215.032C1746.87 269.849 1670.05 273.143 1639.08 220.784L1603.62 160.829C1575.22 112.8 1509.64 103.424 1468.91 141.567L1350.82 225.423C1302.16 259.977 1233.97 239.184 1212.87 183.358C1190.17 123.316 1114.16 104.949 1066.55 148.004L1037.52 174.257C1004.5 204.121 957.465 212.813 915.952 196.723L903.617 191.942C864.699 176.857 821.067 180.027 784.738 200.578L749.561 220.478C707.173 244.456 653.698 234.652 622.574 197.196L584.041 150.824C552.69 113.096 492.405 122.58 474.152 168.111C456.653 230.393 368.544 230.908 350.318 168.835L343.162 144.464C331.085 103.331 285.857 81.9109 246.381 98.6286L229.11 105.943C207.367 115.151 190.209 132.672 181.459 154.603L153.475 224.74C151.598 229.445 149.239 233.942 146.437 238.161C110.408 292.397 26.8511 276.397 13.407 212.688L5.91066 177.165C4.64034 171.145 4 165.009 4 158.857V16.6957Z" fill="#39DBFF"/>
</g>
<defs>
<filter id="filter0_d" x="0" y="0" width="1943" height="280.006" filterUnits="userSpaceOnUse" color-interpolation-filters="sRGB">
<feFlood flood-opacity="0" result="BackgroundImageFix"/>
<feColorMatrix in="SourceAlpha" type="matrix" values="0 0 0 0 0 0 0 0 0 0 0 0 0 0 0 0 0 0 127 0"/>
<feOffset dy="5"/>
<feGaussianBlur stdDeviation="2"/>
<feColorMatrix type="matrix" values="0 0 0 0 1 0 0 0 0 1 0 0 0 0 1 0 0 0 0.61 0"/>
<feBlend mode="normal" in2="BackgroundImageFix" result="effect1_dropShadow"/>
<feBlend mode="normal" in="SourceGraphic" in2="effect1_dropShadow" result="shape"/>
</filter>
</defs>
</svg>
