<svg width="1935" height="417" viewBox="0 0 1935 417" fill="none" xmlns="http://www.w3.org/2000/svg">
<path d="M0 133.122C0 59.6007 59.6007 0 133.122 0H1830.49C1888.21 0 1935 46.7888 1935 104.506V202.701C1935 271.666 1847.21 300.935 1805.82 245.768C1777.31 207.76 1720.4 207.452 1691.48 245.148L1606.22 356.272C1552.35 426.482 1450.32 436.485 1383.84 378.075L1346.99 345.694C1297.1 301.866 1224.64 295.218 1167.62 329.239L1117.27 359.272C1064.54 390.733 996.169 369.922 969.906 314.415C940.084 251.386 857.922 234.95 806.149 281.657L779.69 305.526C739.288 341.975 680.516 349.542 632.199 324.516L616.443 316.355C566.273 290.369 504.861 301.793 467.392 344.082L442.345 372.351C394.967 425.823 308.246 412.867 278.565 347.883L270.995 331.309C247.717 280.343 182.318 265.514 139.334 301.455C84.0726 347.662 0 308.37 0 236.336V133.122Z" fill="#AAC2FF"/>
</svg>
