<svg width="940" height="598" viewBox="0 0 940 598" fill="none" xmlns="http://www.w3.org/2000/svg">
<path d="M0 44.6176C0 5.37725 47.4984 -14.2129 75.1613 13.6182C79.6168 18.1007 83.0536 23.491 85.2377 29.4218L147.917 199.626C161.962 237.766 198.297 263.105 238.941 263.105H367.078C407.023 263.105 439.406 295.488 439.406 335.433C439.406 382.45 483.559 416.969 529.186 405.624L577.286 393.665C610.163 385.49 641.979 410.363 641.979 444.242C641.979 476.456 670.912 500.956 702.685 495.647L766.523 484.982C774.625 483.628 782.948 484.973 790.211 488.811L929.87 562.602C949.138 572.782 937.905 602.086 916.77 596.779C915.302 596.41 913.794 596.224 912.281 596.224H46.1748C20.6732 596.224 0 575.551 0 550.049V44.6176Z" fill="#39DBFF"/>
</svg>
