<svg width="1021" height="598" viewBox="0 0 1021 598" fill="none" xmlns="http://www.w3.org/2000/svg">
<path d="M1021 48.5178C1021 6.36111 970.803 -15.5938 939.848 13.0237C934.579 17.8941 930.461 23.8763 927.792 30.5361L859 202.189C844.254 238.985 808.602 263.105 768.962 263.105H615.936C575.55 263.105 542.811 295.845 542.811 336.23C542.811 383.191 499.179 417.978 453.398 407.519L387.152 392.383C353.977 384.803 322.358 410.012 322.358 444.043C322.358 476.513 293.421 501.347 261.326 496.42L184.872 484.682C177.289 483.518 169.532 484.689 162.631 488.04L11.226 561.549C-8.8739 571.308 1.86572 601.728 23.6373 596.704C25.0205 596.385 26.4355 596.224 27.8551 596.224H970.75C998.502 596.224 1021 573.726 1021 545.973V48.5178Z" fill="#39DBFF"/>
</svg>
