<svg width="1935" height="306" viewBox="0 0 1935 306" fill="none" xmlns="http://www.w3.org/2000/svg">
<path d="M0 90.2454C0 40.4042 40.4043 0 90.2455 0H1846.64C1895.44 0 1935 39.5599 1935 88.3596V104.12C1935 175.66 1849.47 212.54 1797.44 163.43C1765.62 133.39 1715.77 133.813 1684.46 164.39L1587.51 259.08C1549.63 296.079 1486.67 285.29 1463.26 237.79C1439.34 189.221 1374.37 179.298 1337.03 218.508L1304.08 253.113C1260.95 298.406 1185.49 284.334 1161.58 226.54L1141.67 178.407C1123.7 134.967 1064.52 129.203 1038.5 168.358C1013.58 205.877 957.435 202.516 937.163 162.293L936.118 160.22C916.405 121.106 862.805 115.563 835.506 149.817L750.6 256.352C703.957 314.876 612.666 306.628 577.269 240.69C543.07 176.987 455.981 166.608 407.77 220.492L356.593 277.69C314.801 324.4 238.39 310.322 215.988 251.785L204.973 223.001C189.255 181.928 137.199 169.437 104.554 198.906C64.2881 235.255 0 206.681 0 152.435V90.2454Z" fill="#3AA1FF"/>
</svg>
